PathFileType	4	(X/Y/Z)	/Users/mathieubourgeois/Desktop/Analyse/Traitement/Sujet_08/Data/Transformed_Sujet_08_velo_60.trc
DataRate	CameraRate	NumFrames	NumMarkers	Units	OrigDataRate	OrigDataStartFrame	OrigNumFrames
120.000000	120.000000	4	35	mm	120.000000	233	1866
Frame#	Time	RFHD			RANE			STRN			LANI			LKNE			T10			RHUM			RWRB			C7			LFWT			LTOE			RTOE			LWRA			LBWT			RBWT			RFWT			LKNI			RKNI			RKNE			LANE			RANI			LHEE			LHUM			LRAD			RRAD			RWRA			LWRB			LFHD			LBHD			RBHD			RSHO			LSHO			CLAV			LCAR			RCAR			
		X1	Y1	Z1	X2	Y2	Z2	X3	Y3	Z3	X4	Y4	Z4	X5	Y5	Z5	X6	Y6	Z6	X7	Y7	Z7	X8	Y8	Z8	X9	Y9	Z9	X10	Y10	Z10	X11	Y11	Z11	X12	Y12	Z12	X13	Y13	Z13	X14	Y14	Z14	X15	Y15	Z15	X16	Y16	Z16	X17	Y17	Z17	X18	Y18	Z18	X19	Y19	Z19	X20	Y20	Z20	X21	Y21	Z21	X22	Y22	Z22	X23	Y23	Z23	X24	Y24	Z24	X25	Y25	Z25	X26	Y26	Z26	X27	Y27	Z27	X28	Y28	Z28	X29	Y29	Z29	X30	Y30	Z30	X31	Y31	Z31	X32	Y32	Z32	X33	Y33	Z33	X34	Y34	Z34	X35	Y35	Z35	

234	1.941666666666667	255.1885528564453	1393.173217773438	82.21009826660151	-312.1117553710938	399.9699401855469	172.9008483886718	-58.60527420043945	1163.525390625	7.160620689392012	-35.09603881835937	483.3587341308594	-76.36084747314456	31.90164756774904	891.16845703125	-138.8845520019532	-211.91943359375	1356.7255859375	13.32446765899647	149.0853271484375	1082.811279296875	192.4395141601562	328.8007812499999	909.4885864257812	250.05029296875	22.88666152954102	1432.632080078125	5.35212373733512	-272.6162719726562	1102.950805664062	-96.63897705078135	127.1358184814453	394.5696716308594	-118.0896530151367	-187.3280944824219	246.8387603759766	144.0952758789062	356.7834777832031	938.5012817382812	-172.6175689697266	-411.5355834960938	1154.605102539062	-28.00186347961438	-402.3189392089844	1152.087524414062	102.8010940551757	-244.4274291992188	1089.752563476562	132.5190277099609	23.56299018859864	816.3139038085938	-36.11526489257817	-71.85784912109376	661.078369140625	92.07861328124994	-79.60514068603518	725.8241577148438	196.0588836669921	-70.33753967285155	475.0608825683594	-158.6676940917969	-276.5657958984375	401.6340637207031	95.73698425292963	-115.8415069580078	450.4957580566406	-116.8389129638672	124.5929412841797	1074.793579101562	-177.2430114746094	178.6781768798828	1106.32470703125	-227.8129272460938	188.1667938232422	1106.774169921875	239.9682922363281	360.2717590332031	930.7396850585938	187.0477905273438	320.8562316894531	896.4623413085938	-223.7965850830078	274.8398742675781	1389.25390625	-43.59963226318364	180.5010681152344	1508.584716796875	-75.14298248291023	160.3213348388672	1530.76611328125	60.82200622558587	62.3171920776367	1366.547729492188	126.0448913574218	43.17408370971681	1363.131225585938	-140.1783294677735	46.21602630615234	1298.311279296875	1.203681468963549	419.5711669921876	909.4579467773438	-255.6148071289062	431.1514892578124	897.003173828125	278.9179992675781	
235	1.95	253.8834838867188	1393.613159179688	85.26328277587885	-313.0409545898438	409.8075866699219	172.8794555664062	-58.330078125	1163.677001953125	7.376182556152266	-34.12598419189452	472.4373779296875	-76.17871856689456	29.87038993835451	881.7719116210938	-139.3964080810547	-211.7554779052734	1356.766235351562	13.33173465728749	149.2016448974609	1082.785888671875	192.684585571289	328.9234313964843	909.4166259765625	250.0724182128906	22.97217750549316	1432.810791015625	6.04460477828971	-271.8486633300781	1102.596801757812	-96.95918273925791	130.0565643310547	385.7518310546875	-118.147819519043	-190.4996948242188	255.0254516601562	144.3596954345703	356.9544677734375	938.4317016601562	-172.5865020751953	-411.0994873046875	1154.500122070312	-28.60264778137219	-402.1866149902344	1152.163696289062	102.237449645996	-244.2667541503907	1089.916015625	132.1086120605468	21.34276771545411	806.6177368164062	-37.20442199707036	-67.57920074462892	665.9956665039062	92.25283813476557	-74.90513610839847	730.604248046875	196.164077758789	-68.11351776123045	464.4716796875	-159.1247253417969	-277.4446716308594	410.8310852050781	95.7949600219726	-113.7661743164062	439.7581176757812	-117.1112060546875	124.8957748413086	1074.952026367188	-177.0094299316407	179.0178985595703	1106.56982421875	-227.534408569336	188.2298431396484	1106.66162109375	240.2806549072265	360.3573913574219	930.735107421875	187.0489959716797	320.9503479003906	896.4861450195312	-223.7937469482422	275.0041198730469	1389.945190429688	-42.82256317138677	180.4067535400391	1509.08935546875	-74.13690948486335	160.1274261474609	1531.001586914062	61.82730865478509	62.3234405517578	1366.576293945312	126.7346954345702	43.66602706909181	1363.359130859375	-139.609588623047	46.42521667480469	1298.467651367188	1.847087025642321	419.6654357910157	909.4158935546875	-255.6296234130859	431.2709960937499	896.9390869140625	278.8769836425781	
236	1.958333333333333	253.9875183105469	1394.120727539062	86.14215087890619	-313.6763610839844	419.7277221679688	172.8545989990234	-58.07091522216797	1163.84814453125	7.627406120300215	-32.61809921264648	462.3157958984375	-76.56475830078128	27.34916496276857	872.6087036132812	-139.9876556396485	-211.48388671875	1356.8291015625	13.32972526550282	149.3699951171875	1082.793212890625	192.9325256347656	329.0320739746093	909.370849609375	250.1023559570312	23.1418285369873	1432.97607421875	6.791330337524329	-271.0003356933594	1102.271362304688	-97.25726318359385	132.45703125	376.7115478515625	-118.2166976928711	-193.1324615478516	263.5005493164062	144.5184020996093	357.1648559570312	938.3551025390625	-172.5494995117188	-410.5880737304688	1154.4091796875	-29.27747917175305	-402.0194702148438	1152.2841796875	101.6877822875975	-244.0598602294922	1090.121337890625	131.6632690429687	18.79640769958496	797.181396484375	-38.40153503417974	-63.37794113159181	671.0896606445312	92.38739013671869	-70.22764587402347	735.4631958007812	196.2258148193359	-66.30249786376952	453.9296875	-159.5922088623047	-280.6880493164062	420.3774719238281	95.6678848266601	-111.5163497924805	429.0750732421875	-117.3640975952149	125.3110427856446	1075.16796875	-176.8486480712891	179.5049285888672	1106.783569335938	-227.2317962646485	188.3250427246093	1106.595458984375	240.5906524658203	360.4698791503906	930.7255859375	187.0462188720703	321.1013488769531	896.5173950195312	-223.818588256836	275.2086181640625	1390.667602539062	-42.02927780151372	180.3544311523438	1509.644775390625	-73.1146316528321	160.0202789306641	1531.3193359375	62.82970809936516	62.40790557861327	1366.645141601562	127.4869766235351	44.2272415161133	1363.628173828125	-139.0047302246095	46.73493576049805	1298.651123046875	2.397929191589282	419.7947387695313	909.3643798828125	-255.6541137695312	431.4017028808593	896.8756713867188	278.8346862792969	
237	1.966666666666667	255.7573852539062	1394.614135742188	84.68321228027338	-314.0530700683594	429.6674499511719	172.8721771240234	-57.65988159179688	1164.0302734375	7.95335102081291	-31.57245445251464	452.1827392578125	-76.93792724609378	24.56884956359865	863.3510131835938	-140.6346282958985	-211.1650238037109	1356.924072265625	13.34639358520497	149.5706024169922	1082.71435546875	193.1669311523437	329.1572265624999	909.30126953125	250.1166381835937	23.37468719482422	1433.184204101562	7.567195892333899	-270.1682434082031	1101.952270507812	-97.65437316894541	134.3548126220703	367.5251770019531	-118.2334823608399	-195.2312622070313	272.2906188964844	144.7035522460937	357.4017639160156	938.2417602539062	-172.4962768554688	-410.0351867675781	1154.317626953125	-29.96672821044934	-401.7551879882812	1152.421264648438	101.0918884277343	-243.7991027832032	1090.322265625	131.0715789794921	15.86350727081299	788.239501953125	-39.67306900024419	-59.29072952270509	676.2747802734375	92.47839355468744	-65.71013641357425	740.4146118164062	196.3633880615234	-65.00463104248045	443.3794860839844	-160.0319366455078	-281.3790283203125	429.7642822265625	95.61694335937494	-110.0421905517578	418.348876953125	-117.8167800903321	125.7899398803711	1075.411499023438	-176.6352081298828	180.293685913086	1107.081298828125	-226.619873046875	188.4823455810547	1106.561645507812	240.8946685791015	360.5632629394531	930.7063598632812	187.0608825683594	321.2481994628906	896.5147094726562	-223.7999267578125	275.4915771484375	1391.507202148438	-41.21813583374028	180.3460235595703	1510.225708007812	-72.07210540771491	159.917236328125	1531.663940429688	63.89516067504876	62.52974319458006	1366.72119140625	128.1306152343749	44.88344955444337	1363.955932617188	-138.3196258544923	47.11604690551758	1298.877075195312	3.036190032958911	419.9495239257813	909.2999267578125	-255.6726684570312	431.4914550781249	896.6873168945312	278.8273010253906	
